<svg xmlns="http://www.w3.org/2000/svg" width="135" height="41" viewBox="0 0 875 247" version="1.1"><path d="M 171.500 3.605 C 99.776 10.661, 44.644 36.550, 18.156 75.613 C 2.319 98.970, 0.406 128.077, 13.048 153.337 C 31.456 190.114, 77.596 220.454, 137.284 235.029 C 154.069 239.128, 162.996 240.008, 148.500 236.135 C 116.237 227.515, 89.620 213.626, 69.820 195.081 C 55.018 181.216, 45.878 167.481, 39.820 150 C 36.594 140.691, 36.528 140.158, 36.548 123.500 C 36.568 107.062, 36.674 106.186, 39.760 97 C 45.538 79.801, 54.138 66.840, 69.554 52.103 C 80.814 41.338, 94.574 31.995, 110.012 24.631 C 120.620 19.571, 139 12.499, 139 13.477 C 139 13.708, 136.127 15.269, 132.616 16.945 C 121.229 22.379, 107.791 31.970, 98.377 41.380 C 60.315 79.431, 55.564 133.121, 86.156 179.500 C 93.431 190.528, 112.154 209.066, 123.895 216.865 C 135.336 224.466, 150.438 231.880, 162.500 235.818 C 172.331 239.028, 181.068 241.265, 181.619 240.714 C 181.812 240.521, 179.944 238.936, 177.469 237.191 C 174.994 235.447, 171.191 231.268, 169.017 227.905 C 145.688 191.811, 150.646 106.857, 179.488 48.500 C 190.450 26.320, 202.859 12.242, 216.618 6.376 L 222.500 3.869 213.983 4.369 C 187.575 5.921, 160.117 28.503, 143.089 62.674 C 113.231 122.591, 121.356 198.262, 161.071 230.135 C 164.261 232.696, 167.463 235.001, 168.186 235.258 C 168.909 235.516, 169.274 235.976, 168.997 236.282 C 168.721 236.588, 165.301 235.359, 161.398 233.551 C 139.200 223.269, 119.510 203.458, 108.444 180.273 C 94.806 151.698, 92.740 118.247, 102.660 86.626 C 112.237 56.099, 135.019 29.048, 163 14.979 C 172.692 10.106, 185.291 6.140, 194.930 4.927 C 199.643 4.334, 205.300 3.487, 207.500 3.045 C 214.369 1.663, 186.895 2.091, 171.500 3.605 M 223.622 7.320 C 209.229 20.895, 189.412 94.583, 181.487 164 C 179.297 183.182, 178.461 214.587, 179.865 224.944 C 181.333 235.777, 184.200 242, 187.721 242 C 202.018 242, 224.507 167.321, 234.550 86.500 C 236.738 68.899, 237.637 27.703, 236.040 18.238 C 234.793 10.844, 231.666 4.752, 228.839 4.207 C 227.963 4.039, 225.616 5.440, 223.622 7.320 M 236.598 7.896 C 247.322 14.436, 255.374 30.195, 259.645 53 C 262.177 66.520, 262.198 105.758, 259.683 122 C 255.083 151.691, 247.478 176.806, 236.382 198.943 C 224.676 222.296, 212.817 235.421, 198.854 240.477 L 192.737 242.692 197.472 243.341 C 200.076 243.698, 202.610 243.741, 203.103 243.436 C 203.597 243.131, 204 243.428, 204 244.094 C 204 245.020, 207.841 245.159, 220.250 244.681 C 288.826 242.039, 341.472 224.995, 378.314 193.510 C 392.844 181.092, 405.577 161.914, 409.525 146.500 C 418.840 110.138, 399.767 72.832, 357.551 44.841 C 332.922 28.511, 305.557 17.505, 269.880 9.581 C 254.163 6.090, 251.817 6.425, 266 10.136 C 302.278 19.625, 329.520 34.236, 350.566 55.492 C 377.401 82.593, 386.833 116.209, 376.797 148.978 C 371.892 164.991, 364.204 176.940, 349.071 192.065 C 335.968 205.160, 324.481 213.288, 307.500 221.476 C 298.036 226.040, 279.737 233.405, 275 234.556 C 274.175 234.757, 272.488 235.216, 271.250 235.577 C 266.492 236.965, 269.297 235.160, 275.250 233.004 C 291.167 227.239, 307.358 216.548, 319.799 203.589 C 332.924 189.918, 341.100 175.884, 346.649 157.500 C 349.166 149.158, 349.366 147.183, 349.380 130.500 C 349.392 115.239, 349.075 111.354, 347.294 104.969 C 336.775 67.251, 311.236 37.482, 273.500 18.949 C 263.531 14.053, 249.057 8.610, 248.223 9.443 C 247.982 9.685, 250.820 11.259, 254.531 12.942 C 276.632 22.962, 298.634 45.397, 308.983 68.463 C 326.774 108.115, 322.715 155.006, 298.299 191.889 C 287.958 207.510, 270.097 223.397, 253.500 231.736 C 239.858 238.590, 222.519 243.102, 210.640 242.890 C 204.786 242.786, 204.686 242.744, 208.500 241.981 C 222.489 239.183, 238.453 229.574, 250.823 216.505 C 268.692 197.628, 281.361 172.170, 287.596 142.612 C 290.723 127.788, 291.932 100.581, 290.081 86.681 C 285.259 50.458, 268.462 21.961, 244.986 10.173 C 236.553 5.939, 230.848 4.390, 236.598 7.896" stroke="none" fill="#9bcc06" fill-rule="evenodd"/><path d="M 508 63.652 L 508 90.304 502.031 84.611 C 471.351 55.348, 419.899 79.987, 420.015 123.886 C 420.071 145.229, 433.877 164.939, 453.894 172.256 C 462.253 175.311, 478.310 175.199, 486.500 172.028 C 492.784 169.595, 498.854 165.823, 504.592 160.785 L 508 157.793 508 164.896 L 508 172 515 172 L 522 172 522 104.500 L 522 37 515 37 L 508 37 508 63.652 M 708 104.500 L 708 172 714.500 172 L 721 172 721 104.500 L 721 37 714.500 37 L 708 37 708 104.500 M 599.919 73.833 C 586.240 77.404, 573.671 88.169, 567.151 101.897 C 563.898 108.747, 563.581 110.240, 563.185 120.588 C 562.671 134.019, 564.642 142.044, 570.785 151.542 C 587.700 177.690, 623.559 182.663, 645.509 161.903 L 651 156.710 651 164.355 L 651 172 658 172 L 665 172 665 123.500 L 665 75 658 75 L 651 75 651 82.799 L 651 90.598 645.217 84.974 C 633.360 73.444, 616.910 69.398, 599.919 73.833 M 798.348 73.420 C 789.823 75.488, 782.028 79.934, 775.570 86.412 C 754.899 107.146, 754.650 139.392, 775 160.086 C 782.880 168.099, 791.382 172.464, 802.463 174.187 C 827.454 178.072, 850.765 163.954, 859.098 139.887 C 862.208 130.904, 862.208 116.096, 859.098 107.113 C 850.282 81.651, 824.154 67.160, 798.348 73.420 M 461.929 86.303 C 451.501 89.262, 441.988 97.527, 437.160 107.825 C 434.834 112.787, 434.500 114.760, 434.500 123.521 C 434.500 132.835, 434.733 134.014, 437.797 140.239 C 441.842 148.456, 448.173 154.956, 455.761 158.682 C 460.894 161.202, 462.556 161.500, 471.500 161.500 C 480.541 161.500, 482.076 161.218, 487.500 158.558 C 495.721 154.528, 503.090 146.952, 506.068 139.469 C 508.008 134.596, 508.447 131.663, 508.459 123.500 C 508.472 114.730, 508.143 112.792, 505.791 107.747 C 502.045 99.716, 494.338 91.874, 486.916 88.543 C 479.699 85.304, 468.872 84.334, 461.929 86.303 M 602.909 86.831 C 586.781 92.180, 576.713 106.274, 576.713 123.500 C 576.713 154.852, 609.449 172.519, 635.660 155.313 C 650.664 145.462, 656.213 123.465, 647.981 106.461 C 639.969 89.911, 619.933 81.185, 602.909 86.831 M 802.384 86.361 C 791.726 89.053, 782.134 97.216, 777.160 107.825 C 774.808 112.843, 774.500 114.718, 774.500 124.021 C 774.500 133.870, 774.708 134.964, 777.750 141.144 C 781.603 148.970, 787.879 155.115, 795.825 158.840 C 800.748 161.148, 802.758 161.495, 811 161.464 C 819.379 161.432, 821.201 161.089, 826.438 158.553 C 852.213 146.070, 855.276 109.586, 831.985 92.489 C 823.480 86.246, 812.136 83.897, 802.384 86.361 M 839.062 184.827 C 835.390 186.796, 832 192.052, 832 195.774 C 832 199.980, 835.718 205.458, 842.911 211.851 C 851.665 219.631, 852.793 221.467, 850.425 224.083 C 847.843 226.936, 844.238 226.466, 840.846 222.835 L 837.889 219.670 834.217 221.769 C 832.197 222.923, 830.398 224.305, 830.220 224.840 C 829.755 226.236, 835.794 232.842, 839.099 234.551 C 847.792 239.047, 859.851 233.641, 861.570 224.477 C 862.819 217.819, 861.308 215.034, 851.180 205.338 C 842.866 197.378, 841.783 195.967, 842.927 194.588 C 844.848 192.273, 848.317 192.644, 850.948 195.445 L 853.245 197.890 856.622 195.195 C 860.713 191.931, 860.782 191.120, 857.250 187.751 C 852.021 182.762, 845.012 181.636, 839.062 184.827 M 427 209.387 L 427 235 431.966 235 L 436.932 235 437.216 224.250 L 437.500 213.500 443.328 224.250 L 449.155 235 454.578 235 C 457.560 235, 460 234.848, 460 234.663 C 460 234.478, 457.331 229.437, 454.069 223.460 L 448.138 212.594 451.015 210.845 C 455.312 208.232, 457.387 204.406, 457.368 199.132 C 457.330 188.435, 452.438 184.801, 437.250 184.187 L 427 183.773 427 209.387 M 513.016 208.205 C 507.904 221.567, 503.511 233.063, 503.254 233.750 C 502.915 234.655, 504.298 235, 508.259 235 L 513.732 235 515.727 229.750 L 517.722 224.500 527.576 224.500 L 537.430 224.500 539.458 229.750 L 541.486 235 546.743 235 C 549.634 235, 551.994 234.662, 551.987 234.250 C 551.980 233.838, 547.747 222.475, 542.581 209 L 533.188 184.500 527.749 184.205 L 522.310 183.909 513.016 208.205 M 599 209.363 L 599 235 608.451 235 C 620.575 235, 626.777 233.633, 631.204 229.983 C 636.697 225.455, 639.319 218.968, 639.281 210 C 639.245 201.824, 637.737 197.217, 633.411 192.077 C 628.636 186.401, 623.895 184.756, 610.750 184.212 L 599 183.725 599 209.363 M 688 209.500 L 688 235 693 235 L 698 235 698 209.500 L 698 184 693 184 L 688 184 688 209.500 M 748.148 203.750 C 748.565 226.858, 749.404 229.680, 757.077 233.789 C 762.585 236.739, 771.460 236.540, 775.702 233.373 C 782.322 228.431, 782.471 227.834, 782.806 204.930 L 783.112 184 778.056 184 L 773 184 773 202.066 C 773 223.704, 772.287 225.951, 765.405 225.985 C 759.423 226.014, 759 224.507, 759 203.171 L 759 184 753.396 184 L 747.791 184 748.148 203.750 M 437 199.128 L 437 204.256 441.155 203.591 C 446.602 202.720, 447 202.406, 447 198.976 C 447 195.638, 444.717 194, 440.066 194 C 437.043 194, 437 194.072, 437 199.128 M 609 209.497 L 609 225.274 615.626 224.742 C 621.323 224.285, 622.682 223.779, 625.326 221.135 C 627.985 218.477, 628.457 217.193, 628.809 211.659 C 629.518 200.520, 625.294 195.402, 614.468 194.285 L 609 193.720 609 209.497 M 524.930 205.722 C 523.594 209.405, 522.350 212.774, 522.167 213.209 C 521.983 213.644, 524.346 214, 527.417 214 C 530.487 214, 533 213.785, 533 213.523 C 533 212.897, 528.029 199.696, 527.651 199.318 C 527.491 199.158, 526.267 202.040, 524.930 205.722" stroke="none" fill="#040404" fill-rule="evenodd"/></svg>